<?xml version="1.0" encoding="UTF-8"?><svg xmlns="http://www.w3.org/2000/svg" xmlns:xlink="http://www.w3.org/1999/xlink" fill-opacity="1" color-rendering="auto" color-interpolation="auto" text-rendering="auto" stroke="black" stroke-linecap="square" width="706" stroke-miterlimit="10" shape-rendering="auto" stroke-opacity="1" fill="black" stroke-dasharray="none" font-weight="normal" stroke-width="1" height="433" font-family="'Dialog'" font-style="normal" stroke-linejoin="miter" font-size="12px" stroke-dashoffset="0" image-rendering="auto">
  <!--Generated by ySVG 2.5-->
  <defs id="genericDefs"/>
  <g>
    <defs id="defs1">
      <clipPath clipPathUnits="userSpaceOnUse" id="clipPath1">
        <path d="M0 0 L706 0 L706 433 L0 433 L0 0 Z"/>
      </clipPath>
      <clipPath clipPathUnits="userSpaceOnUse" id="clipPath2">
        <path d="M333 197 L1039 197 L1039 630 L333 630 L333 197 Z"/>
      </clipPath>
    </defs>
    <g fill="white" text-rendering="geometricPrecision" shape-rendering="geometricPrecision" transform="translate(-333,-197)" stroke="white">
      <rect x="333" width="706" height="433" y="197" clip-path="url(#clipPath2)" stroke="none"/>
    </g>
    <g fill="rgb(204,255,255)" text-rendering="geometricPrecision" shape-rendering="geometricPrecision" transform="matrix(1,0,0,1,-333,-197)" stroke="rgb(204,255,255)">
      <ellipse rx="75" ry="28" clip-path="url(#clipPath2)" cx="540" cy="240" stroke="none"/>
    </g>
    <g text-rendering="geometricPrecision" stroke-miterlimit="1.45" shape-rendering="geometricPrecision" transform="matrix(1,0,0,1,-333,-197)" stroke-linecap="butt">
      <ellipse rx="75" fill="none" ry="28" clip-path="url(#clipPath2)" cx="540" cy="240"/>
      <text x="504.4258" font-size="16px" y="245.5469" clip-path="url(#clipPath2)" font-family="sans-serif" stroke="none" font-weight="bold" xml:space="preserve">summary</text>
    </g>
    <g fill="rgb(204,255,204)" text-rendering="geometricPrecision" shape-rendering="geometricPrecision" transform="matrix(1,0,0,1,-333,-197)" stroke="rgb(204,255,204)">
      <ellipse rx="75" ry="28" clip-path="url(#clipPath2)" cx="720" cy="450" stroke="none"/>
    </g>
    <g text-rendering="geometricPrecision" stroke-miterlimit="1.45" shape-rendering="geometricPrecision" transform="matrix(1,0,0,1,-333,-197)" stroke-linecap="butt">
      <ellipse rx="75" fill="none" ry="28" clip-path="url(#clipPath2)" cx="720" cy="450"/>
      <text x="698.2148" font-size="16px" y="455.5469" clip-path="url(#clipPath2)" font-family="sans-serif" stroke="none" font-weight="bold" xml:space="preserve">result</text>
    </g>
    <g fill="rgb(255,153,204)" text-rendering="geometricPrecision" shape-rendering="geometricPrecision" transform="matrix(1,0,0,1,-333,-197)" stroke="rgb(255,153,204)">
      <ellipse rx="75" ry="28" clip-path="url(#clipPath2)" cx="450" cy="540" stroke="none"/>
    </g>
    <g text-rendering="geometricPrecision" stroke-miterlimit="1.45" shape-rendering="geometricPrecision" transform="matrix(1,0,0,1,-333,-197)" stroke-linecap="butt">
      <ellipse rx="75" fill="none" ry="28" clip-path="url(#clipPath2)" cx="450" cy="540"/>
      <text x="423.3281" font-size="16px" y="545.5469" clip-path="url(#clipPath2)" font-family="sans-serif" stroke="none" font-weight="bold" xml:space="preserve">locator</text>
    </g>
    <g fill="white" text-rendering="geometricPrecision" shape-rendering="geometricPrecision" transform="matrix(1,0,0,1,-333,-197)" stroke="white">
      <rect x="348.5" width="62" height="30" y="358" clip-path="url(#clipPath2)" stroke="none"/>
    </g>
    <g text-rendering="geometricPrecision" stroke-miterlimit="1.45" shape-rendering="geometricPrecision" transform="matrix(1,0,0,1,-333,-197)" stroke-linecap="butt">
      <rect fill="none" x="348.5" width="62" height="30" y="358" clip-path="url(#clipPath2)"/>
      <text x="365.7148" font-size="16px" y="378.5469" clip-path="url(#clipPath2)" font-family="sans-serif" stroke="none" xml:space="preserve">true</text>
    </g>
    <g fill="white" text-rendering="geometricPrecision" shape-rendering="geometricPrecision" transform="matrix(1,0,0,1,-333,-197)" stroke="white">
      <rect x="809" width="215" height="30" y="315" clip-path="url(#clipPath2)" stroke="none"/>
    </g>
    <g text-rendering="geometricPrecision" stroke-miterlimit="1.45" shape-rendering="geometricPrecision" transform="matrix(1,0,0,1,-333,-197)" stroke-linecap="butt">
      <rect fill="none" x="809" width="215" height="30" y="315" clip-path="url(#clipPath2)"/>
      <text x="823.2148" font-size="16px" y="335.5469" clip-path="url(#clipPath2)" font-family="sans-serif" stroke="none" xml:space="preserve">"An assertion has failed..."</text>
    </g>
    <g fill="white" text-rendering="geometricPrecision" shape-rendering="geometricPrecision" transform="matrix(1,0,0,1,-333,-197)" stroke="white">
      <rect x="667.5" width="165" height="30" y="585" clip-path="url(#clipPath2)" stroke="none"/>
    </g>
    <g text-rendering="geometricPrecision" stroke-miterlimit="1.45" shape-rendering="geometricPrecision" transform="matrix(1,0,0,1,-333,-197)" stroke-linecap="butt">
      <rect fill="none" x="667.5" width="165" height="30" y="585" clip-path="url(#clipPath2)"/>
      <text x="676.1602" font-size="16px" y="605.5469" clip-path="url(#clipPath2)" font-family="sans-serif" stroke="none" xml:space="preserve">"/foo[1]/bar[2]/@baz"</text>
      <path fill="none" d="M562.8582 266.6679 L691.9355 417.2581" clip-path="url(#clipPath2)"/>
      <path d="M697.1418 423.3321 L693.1286 410.9671 L691.2847 416.4988 L685.5361 417.475 Z" clip-path="url(#clipPath2)" stroke="none"/>
      <rect x="598.0518" y="335.1797" clip-path="url(#clipPath2)" fill="white" width="63.8965" height="19.6406" stroke="none"/>
      <text x="600.0518" font-size="14px" y="349.8535" clip-path="url(#clipPath2)" font-family="sans-serif" stroke="none" xml:space="preserve">vrsl:result</text>
      <path fill="none" d="M664.0547 468.6484 L513.5348 518.8217" clip-path="url(#clipPath2)"/>
      <path d="M505.9453 521.3516 L518.9107 522.3002 L514.4835 518.5055 L515.7484 512.8134 Z" clip-path="url(#clipPath2)" stroke="none"/>
      <rect x="517.6313" y="485.1797" clip-path="url(#clipPath2)" fill="white" width="134.7373" height="19.6406" stroke="none"/>
      <text x="519.6313" font-size="14px" y="499.8535" clip-path="url(#clipPath2)" font-family="sans-serif" stroke="none" xml:space="preserve">vrsl:instanceLocation</text>
      <path fill="none" d="M509.1927 265.5288 L403.7614 352.8955" clip-path="url(#clipPath2)"/>
      <path d="M397.6015 358 L410.0316 354.1933 L404.5314 352.2575 L403.6511 346.4934 Z" clip-path="url(#clipPath2)" stroke="none"/>
      <rect x="416.4544" y="303.1797" clip-path="url(#clipPath2)" fill="white" width="70.9033" height="19.6406" stroke="none"/>
      <text x="418.4543" font-size="14px" y="317.8535" clip-path="url(#clipPath2)" font-family="sans-serif" stroke="none" xml:space="preserve">vrsl:isValid</text>
      <path fill="none" d="M759.1191 426.1105 L885.11 349.1695" clip-path="url(#clipPath2)"/>
      <path d="M891.9375 345 L879.0903 346.9871 L884.2565 349.6907 L884.3021 355.5215 Z" clip-path="url(#clipPath2)" stroke="none"/>
      <rect x="785.6594" y="373.6797" clip-path="url(#clipPath2)" fill="white" width="86.4688" height="19.6406" stroke="none"/>
      <text x="787.6594" font-size="14px" y="388.3535" clip-path="url(#clipPath2)" font-family="sans-serif" stroke="none" xml:space="preserve">vrsl:message</text>
      <path fill="none" d="M516.111 553.2222 L667.1553 583.4311" clip-path="url(#clipPath2)"/>
      <path d="M675 585 L664.2136 577.7437 L666.1747 583.235 L662.2524 587.5496 Z" clip-path="url(#clipPath2)" stroke="none"/>
      <rect x="564.6846" y="559.4297" clip-path="url(#clipPath2)" fill="white" width="63.1309" height="19.6406" stroke="none"/>
      <text x="566.6846" font-size="14px" y="574.1035" clip-path="url(#clipPath2)" font-family="sans-serif" stroke="none" xml:space="preserve">vrsl:value</text>
    </g>
  </g>
</svg>
